HIERARCHY
ROOT Hips
{
	OFFSET 0.00000 0.00000 0.00000
	CHANNELS 6 Xposition Yposition Zposition Zrotation Yrotation Xrotation 
	JOINT LHipJoint
	{
		OFFSET 0 0 0
		CHANNELS 3 Zrotation Yrotation Xrotation
		JOINT LeftHip
		{
			OFFSET 1.57338 -1.94743 0.52196
			CHANNELS 3 Zrotation Yrotation Xrotation
			JOINT LeftKnee
			{
				OFFSET 2.60333 -7.15259 0.00000
				CHANNELS 3 Zrotation Yrotation Xrotation
				JOINT LeftAnkle
				{
					OFFSET 2.77855 -7.63400 0.00000
					CHANNELS 3 Zrotation Yrotation Xrotation
					JOINT LeftToe
					{
						OFFSET 0.19847 -0.54529 2.28466
						CHANNELS 3 Zrotation Yrotation Xrotation
						End Site
						{
							OFFSET 0.00000 -0.00000 1.17993
						}
					}
				}
			}
		}
	}
	JOINT RHipJoint
	{
		OFFSET 0 0 0
		CHANNELS 3 Zrotation Yrotation Xrotation
		JOINT RightHip
		{
			OFFSET -1.61527 -1.94743 0.52196
			CHANNELS 3 Zrotation Yrotation Xrotation
			JOINT RightKnee
			{
				OFFSET -2.53829 -6.97390 0.00000
				CHANNELS 3 Zrotation Yrotation Xrotation
				JOINT RightAnkle
				{
					OFFSET -2.80762 -7.71387 0.00000
					CHANNELS 3 Zrotation Yrotation Xrotation
					JOINT RightToe
					{
						OFFSET -0.30536 -0.83898 2.28801
						CHANNELS 3 Zrotation Yrotation Xrotation
						End Site
						{
							OFFSET -0.00000 -0.00000 1.21323
						}
					}
				}
			}
		}
	}
	JOINT lowerback
	{
		OFFSET 0 0 0
		CHANNELS 3 Zrotation Yrotation Xrotation
		JOINT Chest
		{
			OFFSET -0.04381 1.99497 -0.19778
			CHANNELS 3 Zrotation Yrotation Xrotation
			JOINT Chest2
			{
				OFFSET -0.01959 2.01295 -0.04372
				CHANNELS 3 Zrotation Yrotation Xrotation
				JOINT lowerneck
				{
					OFFSET 0 0 0
					CHANNELS 3 Zrotation Yrotation Xrotation
					JOINT Neck
					{
						OFFSET -0.05459 1.76913 0.09708
						CHANNELS 3 Zrotation Yrotation Xrotation
						JOINT Head
						{
							OFFSET 0.09461 1.77368 -0.11172
							CHANNELS 3 Zrotation Yrotation Xrotation
							End Site
							{
								OFFSET 0.03812 1.78157 -0.04834
							}
						}
					}
				}
				JOINT LeftCollar
				{
					OFFSET 0 0 0
					CHANNELS 3 Zrotation Yrotation Xrotation
					JOINT LeftShoulder
					{
						OFFSET 3.50922 1.24034 -0.28866
CHANNELS 3 Zrotation Xrotation Yrotation
						JOINT LeftElbow
						{
OFFSET 0 -5.401880 0.000000
CHANNELS 3 Zrotation Xrotation Yrotation
							JOINT LeftWrist
							{
OFFSET 0 -3.685590 0.000000
CHANNELS 3 Zrotation Xrotation Yrotation
								JOINT lhand
								{
									OFFSET 0 0 0
CHANNELS 3 Zrotation Xrotation Yrotation
									JOINT LFingers
									{
OFFSET 0 -0.617530 0.000000
CHANNELS 3 Zrotation Xrotation Yrotation
										End Site
										{
OFFSET 0 -0.497870 0.000000
										}
									}
								}
								JOINT LThumb
								{
OFFSET 0 0.000000 0.000000
CHANNELS 3 Zrotation Xrotation Yrotation
									End Site
									{
OFFSET 0 -0.505470 0.505470
									}
								}
							}
						}
					}
				}
				JOINT RightCollar
				{
					OFFSET 0 0 0
					CHANNELS 3 Zrotation Yrotation Xrotation
					JOINT RightShoulder
					{
						OFFSET -2.95373 1.39649 -0.27346
CHANNELS 3 Zrotation Xrotation Yrotation
						JOINT RightElbow
						{
OFFSET 0 -6.106700 -0.000000
CHANNELS 3 Zrotation Xrotation Yrotation
							JOINT RightWrist
							{
OFFSET 0 -3.630520 0.000000
CHANNELS 3 Zrotation Xrotation Yrotation
								JOINT rhand
								{
									OFFSET 0 0 0
CHANNELS 3 Zrotation Xrotation Yrotation
									JOINT RFingers
									{
OFFSET 0 -0.583850 0.000000
CHANNELS 3 Zrotation Xrotation Yrotation
										End Site
										{
OFFSET 0 -0.470710 0.000000
										}
									}
								}
								JOINT RThumb
								{
OFFSET 0 0.000000 0.000000
CHANNELS 3 Zrotation Xrotation Yrotation
									End Site
									{
OFFSET 0 -0.477900 0.477900
									}
								}
							}
						}
					}
				}
			}
		}
	}
}
MOTION
Frames: 5
Frame Time: 0.008333333333333333
-0.018000 18.830900 4.210400 1.005400 -6.412200 -3.456800 0.000000 0.000000 0.000000 -19.722200 -3.933300 10.729000 0.150600 2.501100 6.892700 -0.253200 15.084500 -18.488000 0.029900 -1.116200 -3.068500 0.000000 0.000000 0.000000 0.000000 0.000000 0.000000 0.000000 0.000000 0.000000 -0.000000 -0.000000 0.000000 -0.000000 -0.000000 0.000000 -2.980100 0.209300 5.009600 -0.816500 0.079100 -0.075800 0.825500 0.076400 -2.891100 -9.578000 -8.497700 -7.303500 7.116200 -11.521600 15.351900 2.824300 -5.608500 6.854200 -0.000000 0.000000 0.000000 5.795000 4.786100 -9.830000 11.503500 -19.055800 1.937100 23.674300 18.692300 -20.817000 0.000000 0.000000 0.000000 -7.125000 0.000000 0.000000 -5.067800 52.455200 0.931900 -0.000000 0.000000 0.000000 -15.903400 -10.067900 27.157600 -85.247800 -59.914500 -55.885600 -40.743800 -17.212800 -4.033700 0.000000 0.000000 0.000000 7.125000 0.000000 -0.000000 -10.516600 24.661000 -5.254200
-0.018654 18.829354 4.204472 1.024622 -6.300287 -3.475283 0.000000 0.000000 0.000000 -19.737015 -4.061073 10.709752 0.155145 2.538011 6.995014 -0.253246 15.065999 -18.456712 0.030018 -1.118206 -3.074137 0.000000 0.000000 0.000000 0.000000 0.000000 0.000000 0.000000 0.000000 0.000000 0.000000 0.000000 0.000000 0.000000 0.000000 0.000000 -3.012865 0.182565 5.102753 -0.806043 0.037931 -0.083089 0.857451 0.057228 -2.949478 -9.595685 -8.408349 -7.389638 7.181570 -11.406311 15.448653 2.855963 -5.546514 6.894890 0.000000 0.000000 0.000000 5.801436 4.795185 -9.910859 11.503233 -19.055523 1.937067 23.795600 18.533981 -20.552034 0.000000 0.000000 0.000000 -7.125000 0.000000 0.000000 -4.867907 52.196879 0.864254 0.000000 0.000000 0.000000 -15.937758 -9.937105 27.111489 -85.899471 -59.936300 -56.449545 -40.845635 -17.079342 -3.731727 0.000000 0.000000 0.000000 7.125000 0.000000 0.000000 -10.638117 25.043814 -5.220660
-0.020035 18.830891 4.194851 1.060164 -6.271411 -3.497145 0.000000 0.000000 0.000000 -19.756677 -4.135881 10.594607 0.166444 2.628345 7.245765 -0.209922 14.843948 -18.647022 0.018834 -0.885848 -2.434799 0.000000 0.000000 0.000000 0.000000 0.000000 0.000000 0.000000 0.000000 0.000000 0.000000 0.000000 0.000000 0.000000 0.000000 0.000000 -3.079885 0.194798 5.247018 -0.784228 0.045088 -0.079137 0.916740 0.062912 -3.026889 -9.676073 -8.315490 -7.549581 7.304808 -11.286539 15.629110 2.912730 -5.479197 6.982132 0.000000 0.000000 0.000000 5.764308 4.780178 -9.998512 11.541595 -19.113581 1.949596 23.869991 18.429133 -20.459061 0.000000 0.000000 0.000000 -7.125000 0.000000 0.000000 -4.766022 52.111973 0.836039 0.000000 0.000000 0.000000 -15.957857 -9.882694 26.957032 -86.368481 -59.950057 -56.855574 -41.292319 -17.726047 -4.235176 0.000000 0.000000 0.000000 7.125000 0.000000 0.000000 -10.884667 24.354140 -5.524132
-0.022174 18.829854 4.189521 0.965825 -6.277514 -3.493729 0.000000 0.000000 0.000000 -19.657869 -4.233643 10.336043 0.187727 2.790308 7.695484 -0.187524 14.760955 -18.795199 0.021828 -0.953876 -2.622023 0.000000 0.000000 0.000000 0.000000 0.000000 0.000000 0.000000 0.000000 0.000000 0.000000 0.000000 0.000000 0.000000 0.000000 0.000000 -3.015776 0.211743 5.341953 -0.742061 0.068960 -0.091670 0.922223 0.075166 -3.094005 -9.598596 -8.272930 -7.697929 7.179930 -11.217285 15.845062 2.860260 -5.446098 7.059566 0.000000 0.000000 0.000000 5.766919 4.771602 -10.074221 11.565197 -19.149422 1.957317 23.851502 18.451784 -20.583540 0.000000 0.000000 0.000000 -7.125000 0.000000 0.000000 -4.820292 52.240563 0.860860 0.000000 0.000000 0.000000 -15.992591 -9.827627 26.893706 -86.715141 -59.959122 -57.155603 -41.544435 -17.793192 -4.163053 0.000000 0.000000 0.000000 7.125000 0.000000 0.000000 -11.080208 24.427535 -5.606883
-0.025482 18.830165 4.179848 0.785521 -6.242226 -3.470345 0.000000 0.000000 0.000000 -19.445467 -4.358055 10.148954 0.203585 2.905037 8.014410 -0.169341 14.677992 -18.891287 0.024734 -1.015027 -2.790133 0.000000 0.000000 0.000000 0.000000 0.000000 0.000000 0.000000 0.000000 0.000000 0.000000 0.000000 0.000000 0.000000 0.000000 0.000000 -2.877549 0.195528 5.441425 -0.679289 0.054058 -0.101764 0.910450 0.067024 -3.159485 -9.520003 -8.244756 -7.763166 7.055564 -11.169457 15.971356 2.809570 -5.425872 7.095670 0.000000 0.000000 0.000000 5.799043 4.788497 -10.173322 11.597516 -19.198298 1.967957 23.749695 18.412636 -20.816175 0.000000 0.000000 0.000000 -7.125000 0.000000 0.000000 -4.991125 52.468048 0.919443 0.000000 0.000000 0.000000 -16.035836 -9.820333 26.886477 -87.118573 -59.968609 -57.504902 -41.723277 -17.710388 -3.639591 0.000000 0.000000 0.000000 7.125000 0.000000 0.000000 -11.296817 25.097754 -5.541391
